# xmcd
#
# Track frame offsets:
#	150
#	20169
#	25024
#	32438
#	51529
#	64926
#	71987
#	79589
#	94452
#	99942
#	104594
#	119265
#	137031
#	145652
#	159790
#
# Disc length: 2224 seconds
#
# Revision: 0
# Processed by: cddbd v1.4PL0 Copyright (c) Steve Scherf et al.
# Submitted via: dBpowerAMP V4.0
#
DISCID=cd08ae0f
DTITLE=Jerry Clower - Live from Cleburne, Texas
DYEAR=1994
DGENRE=Comedy
TTITLE0=Letter from Home
TTITLE1=Wooden Leg
TTITLE2=Slop!
TTITLE3=Coon on de Log
TTITLE4=Azlee and Clovis 
TTITLE5=Udell and the Reverend
TTITLE6=Definition of a Cow
TTITLE7=Tater Rides the Moped
TTITLE8=Turnip Greens
TTITLE9=Patch of Peas
TTITLE10=Who's the Boss
TTITLE11=Zeal
TTITLE12=Gathering Votes
TTITLE13=The Last Day of School
TTITLE14=Attitude
EXTD=
EXTT0=
EXTT1=
EXTT2=
EXTT3=
EXTT4=
EXTT5=
EXTT6=
EXTT7=
EXTT8=
EXTT9=
EXTT10=
EXTT11=
EXTT12=
EXTT13=
EXTT14=
PLAYORDER=
